<svg width="517" height="353" viewBox="0 0 517 353" fill="none" xmlns="http://www.w3.org/2000/svg">
<path d="M341 117L341 265L174 265L341 117Z" fill="#D9D9D9" fill-opacity="0.3"/>
<path d="M341 265C341 265 341 174.798 341 117" stroke="black" stroke-dasharray="2 2"/>
<path d="M173 117C173 117 274.782 117 340 117" stroke="black" stroke-dasharray="2 2"/>
<path d="M341 117L174 265" stroke="black" stroke-width="0.5"/>
<path d="M67 68.5804C98.9872 50.9997 135.727 41 174.801 41C298.623 41 399 141.415 399 265.284C399 293.738 393.703 320.954 384.043 346" stroke="black"/>
<path d="M398 265C398 208.093 376.056 156.203 340 117" stroke="#777777" stroke-opacity="0.3" stroke-width="4"/>
<path d="M173 13L170.113 18L175.887 18L173 13ZM172.5 17.5L172.5 336L173.5 336L173.5 17.5L172.5 17.5Z" fill="black"/>
<path d="M506 265L501 262.113L501 267.887L506 265ZM27 265.5L501.5 265.5L501.5 264.5L27 264.5L27 265.5Z" fill="black"/>
<ellipse cx="341.5" cy="265" rx="3.5" ry="3" fill="black"/>
<ellipse cx="174.5" cy="116.5" rx="3.5" ry="2.5" fill="black"/>
<ellipse cx="174.5" cy="265" rx="3.5" ry="3" fill="black"/>
<circle cx="341.5" cy="115.5" r="3.5" fill="black"/>
<ellipse cx="398.5" cy="265" rx="3.5" ry="3" fill="black"/>
<path d="M405.834 271.323L405.6 271.398C405.432 271.448 405.192 271.498 404.88 271.548C404.568 271.598 404.22 271.633 403.836 271.653H403.494V270.962H403.836C404.4 270.942 404.922 270.867 405.402 270.737C405.882 270.607 406.218 270.487 406.41 270.377C406.602 270.267 406.77 270.157 406.914 270.047C406.938 270.017 407.01 270.002 407.13 270.002C407.238 270.002 407.34 270.032 407.436 270.092V274.58L407.454 279.083C407.538 279.153 407.61 279.198 407.67 279.218C407.73 279.238 407.874 279.258 408.102 279.278C408.33 279.298 408.702 279.308 409.218 279.308H409.686V279.998H409.488C409.236 279.968 408.282 279.953 406.626 279.953C404.994 279.953 404.052 279.968 403.8 279.998H403.584V279.308H404.052C404.316 279.308 404.544 279.308 404.736 279.308C404.928 279.308 405.078 279.303 405.186 279.293C405.294 279.283 405.39 279.268 405.474 279.248C405.558 279.228 405.606 279.218 405.618 279.218C405.63 279.218 405.666 279.193 405.726 279.143C405.786 279.093 405.822 279.073 405.834 279.083V271.323Z" fill="black"/>
<g clip-path="url(#clip0_1_119)">
<path d="M345.818 273.364C345.892 272.932 346.175 272.432 346.668 271.866C347.161 271.299 347.769 271.011 348.493 271.001C348.86 271.001 349.196 271.093 349.5 271.279C349.804 271.464 350.03 271.696 350.177 271.974C350.617 271.325 351.147 271.001 351.766 271.001C352.154 271.001 352.49 271.114 352.773 271.341C353.056 271.567 353.203 271.871 353.213 272.252C353.213 272.551 353.14 272.793 352.993 272.978C352.846 273.164 352.705 273.277 352.568 273.318C352.432 273.359 352.311 273.38 352.206 273.38C352.007 273.38 351.844 273.323 351.719 273.21C351.593 273.097 351.53 272.947 351.53 272.762C351.53 272.288 351.792 271.964 352.316 271.789C352.201 271.655 351.991 271.588 351.687 271.588C351.551 271.588 351.451 271.598 351.388 271.619C350.99 271.783 350.696 272.123 350.507 272.638C349.878 274.915 349.563 276.243 349.563 276.624C349.563 276.913 349.647 277.119 349.815 277.242C349.983 277.366 350.166 277.428 350.365 277.428C350.753 277.428 351.136 277.258 351.514 276.918C351.892 276.578 352.149 276.161 352.285 275.666C352.316 275.563 352.348 275.507 352.379 275.496C352.411 275.486 352.495 275.476 352.631 275.466H352.694C352.851 275.466 352.93 275.507 352.93 275.589C352.93 275.599 352.92 275.656 352.899 275.759C352.731 276.346 352.406 276.866 351.923 277.32C351.441 277.773 350.879 277.999 350.24 277.999C349.505 277.999 348.949 277.675 348.572 277.026C348.142 277.665 347.649 277.984 347.093 277.984H346.998C346.484 277.984 346.117 277.85 345.897 277.582C345.677 277.314 345.561 277.031 345.551 276.732C345.551 276.403 345.65 276.135 345.85 275.929C346.049 275.723 346.285 275.62 346.558 275.62C347.009 275.62 347.234 275.836 347.234 276.269C347.234 276.475 347.171 276.655 347.045 276.81C346.92 276.964 346.799 277.067 346.684 277.119C346.568 277.17 346.5 277.196 346.479 277.196L346.432 277.211C346.432 277.222 346.463 277.242 346.526 277.273C346.589 277.304 346.673 277.34 346.778 277.381C346.883 277.423 346.983 277.438 347.077 277.428C347.455 277.428 347.78 277.196 348.052 276.732C348.147 276.568 348.267 276.217 348.414 275.682C348.561 275.146 348.708 274.59 348.855 274.013C349.002 273.437 349.086 273.097 349.107 272.994C349.159 272.716 349.185 272.515 349.185 272.391C349.185 272.103 349.107 271.897 348.949 271.773C348.792 271.65 348.614 271.588 348.414 271.588C347.995 271.588 347.601 271.753 347.234 272.082C346.867 272.412 346.61 272.834 346.463 273.349C346.442 273.442 346.416 273.493 346.385 273.504C346.353 273.514 346.269 273.524 346.133 273.534H345.913C345.85 273.473 345.818 273.416 345.818 273.364Z" fill="black"/>
</g>
<path d="M252.982 171.455L252.8 171.537C252.669 171.592 252.483 171.647 252.24 171.702C251.997 171.758 251.727 171.796 251.428 171.818H251.162V171.059H251.428C251.867 171.037 252.273 170.954 252.646 170.811C253.019 170.668 253.281 170.536 253.43 170.415C253.579 170.294 253.71 170.172 253.822 170.051C253.841 170.018 253.897 170.002 253.99 170.002C254.074 170.002 254.153 170.035 254.228 170.101V175.038L254.242 179.991C254.307 180.068 254.363 180.118 254.41 180.14C254.457 180.162 254.569 180.184 254.746 180.206C254.923 180.228 255.213 180.239 255.614 180.239H255.978V180.998H255.824C255.628 180.965 254.886 180.949 253.598 180.949C252.329 180.949 251.596 180.965 251.4 180.998H251.232V180.239H251.596C251.801 180.239 251.979 180.239 252.128 180.239C252.277 180.239 252.394 180.233 252.478 180.222C252.562 180.211 252.637 180.195 252.702 180.173C252.767 180.151 252.805 180.14 252.814 180.14C252.823 180.14 252.851 180.112 252.898 180.057C252.945 180.002 252.973 179.98 252.982 179.991V171.455Z" fill="black"/>
<g clip-path="url(#clip1_1_119)">
<path d="M399.566 183.8C399.566 182.712 399.774 181.565 400.189 180.36C400.604 179.155 401.168 178.115 401.88 177.24C402.593 176.365 403.333 175.864 404.099 175.736C404.109 175.736 404.152 175.736 404.226 175.736C404.301 175.736 404.365 175.731 404.418 175.72C404.992 175.763 405.439 176.024 405.758 176.504C406.173 177.144 406.381 178.003 406.381 179.08C406.381 180.307 406.141 181.555 405.663 182.824C405.184 184.093 404.572 185.133 403.827 185.944C403.083 186.755 402.37 187.16 401.689 187.16H401.577C401.194 187.16 400.864 187.053 400.588 186.84C400.311 186.627 400.104 186.344 399.965 185.992C399.827 185.64 399.726 185.283 399.662 184.92C399.598 184.557 399.566 184.184 399.566 183.8ZM405.12 177.944C405.12 176.856 404.838 176.312 404.274 176.312C403.891 176.312 403.519 176.552 403.157 177.032C402.795 177.512 402.497 178.056 402.263 178.664C402.029 179.272 401.848 179.805 401.721 180.264C401.593 180.723 401.524 180.989 401.513 181.064C402.035 181.075 402.551 181.08 403.061 181.08L404.609 181.064C404.62 181.053 404.663 180.877 404.737 180.536C404.811 180.195 404.897 179.768 404.992 179.256C405.088 178.744 405.131 178.307 405.12 177.944ZM400.811 184.888C400.811 186.019 401.093 186.584 401.657 186.584C401.817 186.584 401.987 186.531 402.168 186.424C402.349 186.317 402.567 186.115 402.822 185.816C403.077 185.517 403.333 185.053 403.588 184.424C403.843 183.795 404.099 183.016 404.354 182.088L404.434 181.816H401.322C401.322 181.848 401.274 182.051 401.178 182.424C401.082 182.797 400.997 183.213 400.923 183.672C400.848 184.131 400.811 184.536 400.811 184.888Z" fill="black"/>
<path d="M411.819 181.448C411.819 181.309 411.894 181.203 412.043 181.128H422.208C422.368 181.213 422.448 181.32 422.448 181.448C422.448 181.565 422.373 181.667 422.224 181.752L417.15 181.768H412.075C411.905 181.715 411.819 181.608 411.819 181.448ZM411.819 184.552C411.819 184.392 411.905 184.285 412.075 184.232H422.224C422.373 184.339 422.448 184.445 422.448 184.552C422.448 184.691 422.368 184.797 422.208 184.872H412.043C411.894 184.797 411.819 184.691 411.819 184.552Z" fill="black"/>
<path d="M429.961 182.12C429.961 182.12 429.844 182.12 429.61 182.12C429.376 182.12 429.179 182.04 429.02 181.88C428.86 181.72 428.78 181.512 428.78 181.256C428.78 180.882 428.961 180.552 429.323 180.264C429.685 179.976 430.328 179.832 431.254 179.832C432.03 179.832 432.658 180.002 433.137 180.344C433.616 180.685 433.935 181.09 434.094 181.56C434.148 181.709 434.174 181.874 434.174 182.056C434.174 182.237 434.18 182.85 434.19 183.896V185.016C434.19 185.528 434.217 185.88 434.27 186.072C434.323 186.264 434.435 186.36 434.605 186.36C434.765 186.36 434.871 186.274 434.924 186.104C434.977 185.933 435.004 185.65 435.004 185.256V184.68H435.642V185.304C435.632 185.73 435.616 185.981 435.595 186.056C435.499 186.376 435.313 186.626 435.036 186.808C434.759 186.989 434.467 187.085 434.158 187.096C433.85 187.106 433.6 187.01 433.408 186.808C433.217 186.605 433.089 186.381 433.025 186.136V186.072L432.993 186.12C432.972 186.152 432.945 186.184 432.913 186.216C432.882 186.248 432.839 186.296 432.786 186.36C432.733 186.424 432.669 186.482 432.594 186.536C432.52 186.589 432.44 186.653 432.355 186.728C432.27 186.802 432.174 186.861 432.068 186.904C431.961 186.946 431.844 186.989 431.717 187.032C431.589 187.074 431.451 187.106 431.302 187.128C431.153 187.149 430.988 187.165 430.807 187.176C430.169 187.176 429.594 187.01 429.083 186.68C428.573 186.349 428.317 185.885 428.317 185.288C428.317 185.064 428.355 184.85 428.429 184.648C428.504 184.445 428.647 184.226 428.86 183.992C429.073 183.757 429.328 183.56 429.626 183.4C429.924 183.24 430.339 183.09 430.871 182.952C431.403 182.813 431.988 182.733 432.626 182.712H432.85V182.36C432.85 181.997 432.818 181.73 432.754 181.56C432.52 180.802 432.004 180.424 431.206 180.424C431.014 180.424 430.834 180.429 430.663 180.44C430.493 180.45 430.36 180.472 430.264 180.504C430.169 180.536 430.126 180.552 430.137 180.552C430.371 180.712 430.488 180.946 430.488 181.256C430.488 181.522 430.403 181.73 430.232 181.88L429.961 182.12ZM429.786 185.304C429.786 185.634 429.913 185.928 430.169 186.184C430.424 186.44 430.738 186.573 431.11 186.584C431.514 186.584 431.871 186.461 432.179 186.216C432.488 185.97 432.695 185.65 432.802 185.256C432.823 185.181 432.839 184.829 432.85 184.2C432.85 183.581 432.844 183.272 432.834 183.272C432.749 183.272 432.637 183.277 432.499 183.288C432.36 183.298 432.121 183.346 431.78 183.432C431.44 183.517 431.131 183.624 430.855 183.752C430.578 183.88 430.333 184.077 430.121 184.344C429.908 184.61 429.796 184.93 429.786 185.304Z" fill="black"/>
<path d="M436.329 186.264H436.552C436.967 186.264 437.217 186.189 437.302 186.04V185.912C437.302 185.816 437.302 185.693 437.302 185.544C437.302 185.395 437.307 185.229 437.318 185.048C437.329 184.867 437.329 184.659 437.318 184.424C437.307 184.189 437.307 183.965 437.318 183.752C437.318 183.421 437.318 183.069 437.318 182.696C437.318 182.323 437.318 182.008 437.318 181.752L437.302 181.384C437.27 181.181 437.196 181.048 437.079 180.984C436.962 180.92 436.722 180.872 436.361 180.84H436.073V180.472C436.073 180.227 436.084 180.104 436.105 180.104L436.265 180.088C436.371 180.077 436.52 180.067 436.712 180.056C436.903 180.045 437.095 180.035 437.286 180.024C437.456 180.013 437.643 180.003 437.845 179.992C438.047 179.981 438.201 179.965 438.307 179.944C438.414 179.923 438.472 179.917 438.483 179.928H438.531V181.032C438.946 180.307 439.462 179.944 440.079 179.944H440.175C440.653 179.944 441.004 180.061 441.228 180.296C441.451 180.531 441.563 180.776 441.563 181.032C441.563 181.256 441.494 181.448 441.356 181.608C441.217 181.768 441.015 181.848 440.749 181.848C440.483 181.848 440.286 181.763 440.159 181.592C440.031 181.421 439.962 181.24 439.951 181.048C439.951 180.952 439.962 180.867 439.983 180.792C440.004 180.717 440.031 180.653 440.063 180.6C440.095 180.547 440.111 180.52 440.111 180.52C440.09 180.499 439.967 180.52 439.744 180.584C439.574 180.669 439.446 180.749 439.361 180.824C438.861 181.304 438.611 182.259 438.611 183.688V184.536C438.611 184.675 438.611 184.819 438.611 184.968C438.611 185.117 438.611 185.256 438.611 185.384C438.611 185.512 438.616 185.619 438.627 185.704C438.637 185.789 438.637 185.869 438.627 185.944V186.024C438.637 186.045 438.653 186.067 438.675 186.088C438.696 186.109 438.722 186.125 438.754 186.136C438.786 186.147 438.813 186.163 438.834 186.184C438.855 186.205 438.893 186.216 438.946 186.216C438.999 186.216 439.036 186.221 439.058 186.232C439.079 186.243 439.127 186.248 439.201 186.248C439.276 186.248 439.324 186.248 439.345 186.248C439.366 186.248 439.419 186.253 439.504 186.264C439.589 186.275 439.643 186.275 439.664 186.264H440.159V187H440.015C439.824 186.968 439.148 186.952 437.988 186.952C436.892 186.952 436.297 186.968 436.201 187H436.073V186.264H436.329Z" fill="black"/>
<path d="M447.915 182.12C447.915 182.12 447.803 182.12 447.579 182.12C447.356 182.12 447.164 182.04 447.005 181.88C446.845 181.72 446.76 181.517 446.75 181.272C446.75 181.027 446.829 180.824 446.989 180.664C447.042 180.611 447.069 180.579 447.069 180.568C447.069 180.557 447.016 180.547 446.909 180.536C446.633 180.493 446.372 180.472 446.127 180.472C445.606 180.472 445.18 180.643 444.85 180.984C444.35 181.485 444.1 182.323 444.1 183.496C444.1 184.371 444.265 185.059 444.595 185.56C445.031 186.211 445.617 186.536 446.351 186.536C446.787 186.536 447.138 186.397 447.404 186.12C447.67 185.843 447.861 185.512 447.978 185.128C448 185.043 448.026 184.989 448.058 184.968C448.09 184.947 448.175 184.936 448.314 184.936H448.537C448.601 185 448.633 185.048 448.633 185.08C448.633 185.123 448.611 185.208 448.569 185.336C448.526 185.464 448.441 185.64 448.314 185.864C448.186 186.088 448.032 186.291 447.851 186.472C447.67 186.653 447.415 186.819 447.085 186.968C446.755 187.117 446.388 187.187 445.984 187.176C445.069 187.176 444.271 186.835 443.59 186.152C442.909 185.469 442.563 184.611 442.552 183.576C442.552 182.467 442.898 181.565 443.59 180.872C444.281 180.179 445.085 179.832 446 179.832C446.914 179.832 447.553 179.976 447.915 180.264C448.276 180.552 448.457 180.893 448.457 181.288C448.457 181.533 448.367 181.731 448.186 181.88L447.915 182.12Z" fill="black"/>
<path d="M455 182.12C455 182.12 454.888 182.12 454.665 182.12C454.442 182.12 454.25 182.04 454.091 181.88C453.931 181.72 453.846 181.517 453.835 181.272C453.835 181.027 453.915 180.824 454.075 180.664C454.128 180.611 454.154 180.579 454.154 180.568C454.154 180.557 454.101 180.547 453.995 180.536C453.718 180.493 453.457 180.472 453.213 180.472C452.691 180.472 452.266 180.643 451.936 180.984C451.436 181.485 451.186 182.323 451.186 183.496C451.186 184.371 451.351 185.059 451.681 185.56C452.117 186.211 452.702 186.536 453.436 186.536C453.872 186.536 454.223 186.397 454.489 186.12C454.755 185.843 454.947 185.512 455.064 185.128C455.085 185.043 455.112 184.989 455.144 184.968C455.176 184.947 455.261 184.936 455.399 184.936H455.623C455.686 185 455.718 185.048 455.718 185.08C455.718 185.123 455.697 185.208 455.654 185.336C455.612 185.464 455.527 185.64 455.399 185.864C455.271 186.088 455.117 186.291 454.936 186.472C454.755 186.653 454.5 186.819 454.17 186.968C453.84 187.117 453.473 187.187 453.069 187.176C452.154 187.176 451.356 186.835 450.675 186.152C449.994 185.469 449.649 184.611 449.638 183.576C449.638 182.467 449.984 181.565 450.675 180.872C451.367 180.179 452.17 179.832 453.085 179.832C454 179.832 454.638 179.976 455 180.264C455.362 180.552 455.543 180.893 455.543 181.288C455.543 181.533 455.452 181.731 455.271 181.88L455 182.12Z" fill="black"/>
<path d="M456.628 183.576C456.628 182.563 456.974 181.688 457.665 180.952C458.357 180.216 459.192 179.843 460.171 179.832C461.128 179.832 461.953 180.195 462.644 180.92C463.336 181.645 463.687 182.525 463.698 183.56C463.698 184.573 463.357 185.427 462.676 186.12C461.995 186.813 461.16 187.16 460.171 187.16C459.139 187.16 458.293 186.803 457.633 186.088C456.974 185.373 456.639 184.536 456.628 183.576ZM460.171 186.52C461.469 186.52 462.118 185.651 462.118 183.912V183.4V183C462.118 182.765 462.112 182.563 462.102 182.392C462.091 182.221 462.054 182.019 461.99 181.784C461.926 181.549 461.841 181.357 461.735 181.208C461.628 181.059 461.463 180.909 461.24 180.76C461.017 180.611 460.756 180.504 460.458 180.44C460.405 180.429 460.32 180.424 460.203 180.424C459.883 180.424 459.58 180.488 459.293 180.616C458.836 180.851 458.538 181.176 458.399 181.592C458.261 182.008 458.192 182.499 458.192 183.064V183.384C458.192 184.408 458.293 185.128 458.495 185.544C458.836 186.195 459.394 186.52 460.171 186.52Z" fill="black"/>
<path d="M468.868 181.944C468.868 181.517 468.725 181.149 468.437 180.84C468.15 180.531 467.735 180.376 467.193 180.376C466.81 180.376 466.48 180.445 466.203 180.584C465.884 180.787 465.724 181.064 465.724 181.416C465.714 181.469 465.714 181.539 465.724 181.624C465.735 181.709 465.82 181.837 465.98 182.008C466.139 182.179 466.368 182.312 466.666 182.408C466.857 182.461 467.091 182.509 467.368 182.552C467.645 182.595 467.879 182.643 468.07 182.696C468.262 182.749 468.432 182.819 468.581 182.904C468.762 182.989 468.937 183.096 469.108 183.224C469.278 183.352 469.448 183.571 469.618 183.88C469.788 184.189 469.879 184.52 469.89 184.872C469.89 185.533 469.687 186.077 469.283 186.504C468.879 186.931 468.224 187.149 467.32 187.16H467.193C466.639 187.16 466.129 186.968 465.66 186.584L465.533 186.696L465.389 186.84C465.325 186.904 465.262 186.963 465.198 187.016L465.022 187.176H464.894H464.831C464.799 187.176 464.751 187.144 464.687 187.08V185.816V184.888C464.687 184.664 464.698 184.531 464.719 184.488C464.74 184.445 464.793 184.419 464.879 184.408H465.022C465.15 184.408 465.235 184.429 465.277 184.472C465.32 184.515 465.347 184.579 465.357 184.664C465.368 184.749 465.405 184.893 465.469 185.096C465.533 185.299 465.634 185.523 465.772 185.768C466.145 186.312 466.661 186.584 467.32 186.584C468.352 186.584 468.868 186.168 468.868 185.336C468.868 185.027 468.772 184.776 468.581 184.584C468.368 184.328 467.927 184.136 467.256 184.008C466.586 183.88 466.145 183.757 465.932 183.64C465.549 183.459 465.246 183.213 465.022 182.904C464.799 182.595 464.687 182.264 464.687 181.912C464.687 181.496 464.777 181.144 464.958 180.856C465.139 180.568 465.368 180.355 465.645 180.216C465.921 180.077 466.187 179.981 466.442 179.928C466.698 179.875 466.932 179.848 467.145 179.848H467.32C467.746 179.848 468.118 179.928 468.437 180.088L468.677 180.216L468.82 180.104C468.927 180.008 469.044 179.917 469.171 179.832H469.299H469.363C469.395 179.832 469.443 179.864 469.507 179.928V182.04L469.411 182.136H468.964C468.9 182.072 468.868 182.008 468.868 181.944Z" fill="black"/>
<path d="M471.948 183C471.948 182.264 472.001 181.565 472.108 180.904C472.214 180.243 472.336 179.672 472.475 179.192C472.613 178.712 472.81 178.243 473.065 177.784C473.321 177.325 473.523 176.968 473.672 176.712C473.821 176.456 474.044 176.179 474.342 175.88C474.64 175.581 474.815 175.4 474.869 175.336C474.922 175.272 475.055 175.16 475.268 175H475.475H475.539C475.688 175 475.762 175.048 475.762 175.144C475.762 175.176 475.672 175.288 475.491 175.48C475.31 175.672 475.092 175.955 474.837 176.328C474.581 176.701 474.321 177.16 474.055 177.704C473.789 178.248 473.565 178.984 473.384 179.912C473.204 180.84 473.113 181.869 473.113 183C473.113 184.131 473.204 185.155 473.384 186.072C473.565 186.989 473.783 187.731 474.039 188.296C474.294 188.861 474.555 189.32 474.821 189.672C475.087 190.024 475.31 190.307 475.491 190.52C475.672 190.733 475.762 190.845 475.762 190.856C475.762 190.952 475.682 191 475.523 191H475.475H475.268L474.821 190.616C473.821 189.709 473.092 188.579 472.634 187.224C472.177 185.869 471.948 184.461 471.948 183Z" fill="black"/>
<path d="M477.486 182.376C477.56 181.928 477.848 181.411 478.348 180.824C478.848 180.237 479.465 179.939 480.199 179.928C480.571 179.928 480.912 180.024 481.22 180.216C481.529 180.408 481.757 180.648 481.906 180.936C482.353 180.264 482.89 179.928 483.518 179.928C483.912 179.928 484.252 180.045 484.539 180.28C484.827 180.515 484.976 180.829 484.986 181.224C484.986 181.533 484.912 181.784 484.763 181.976C484.614 182.168 484.47 182.285 484.332 182.328C484.194 182.371 484.071 182.392 483.965 182.392C483.763 182.392 483.598 182.333 483.47 182.216C483.343 182.099 483.279 181.944 483.279 181.752C483.279 181.261 483.545 180.925 484.077 180.744C483.96 180.605 483.747 180.536 483.438 180.536C483.3 180.536 483.199 180.547 483.135 180.568C482.731 180.739 482.433 181.091 482.241 181.624C481.603 183.981 481.284 185.357 481.284 185.752C481.284 186.051 481.369 186.264 481.539 186.392C481.709 186.52 481.896 186.584 482.098 186.584C482.491 186.584 482.88 186.408 483.263 186.056C483.646 185.704 483.906 185.272 484.045 184.76C484.077 184.653 484.109 184.595 484.141 184.584C484.172 184.573 484.258 184.563 484.396 184.552H484.46C484.619 184.552 484.699 184.595 484.699 184.68C484.699 184.691 484.688 184.749 484.667 184.856C484.497 185.464 484.167 186.003 483.678 186.472C483.188 186.941 482.619 187.176 481.97 187.176C481.225 187.176 480.662 186.84 480.279 186.168C479.842 186.829 479.342 187.16 478.778 187.16H478.683C478.161 187.16 477.789 187.021 477.566 186.744C477.342 186.467 477.225 186.173 477.214 185.864C477.214 185.523 477.316 185.245 477.518 185.032C477.72 184.819 477.959 184.712 478.236 184.712C478.693 184.712 478.922 184.936 478.922 185.384C478.922 185.597 478.858 185.784 478.731 185.944C478.603 186.104 478.481 186.211 478.363 186.264C478.246 186.317 478.177 186.344 478.156 186.344L478.108 186.36C478.108 186.371 478.14 186.392 478.204 186.424C478.268 186.456 478.353 186.493 478.459 186.536C478.566 186.579 478.667 186.595 478.762 186.584C479.145 186.584 479.475 186.344 479.752 185.864C479.848 185.693 479.97 185.331 480.119 184.776C480.268 184.221 480.417 183.645 480.566 183.048C480.715 182.451 480.8 182.099 480.821 181.992C480.874 181.704 480.901 181.496 480.901 181.368C480.901 181.069 480.821 180.856 480.662 180.728C480.502 180.6 480.321 180.536 480.119 180.536C479.693 180.536 479.294 180.707 478.922 181.048C478.55 181.389 478.289 181.827 478.14 182.36C478.119 182.456 478.092 182.509 478.06 182.52C478.028 182.531 477.943 182.541 477.805 182.552H477.582C477.518 182.488 477.486 182.429 477.486 182.376Z" fill="black"/>
<path d="M486.742 175.016L486.806 175C486.859 175 486.912 175 486.965 175H487.157L487.604 175.384C488.604 176.291 489.332 177.421 489.79 178.776C490.247 180.131 490.476 181.539 490.476 183C490.476 183.725 490.423 184.424 490.316 185.096C490.21 185.768 490.088 186.339 489.949 186.808C489.811 187.277 489.614 187.747 489.359 188.216C489.104 188.685 488.901 189.043 488.753 189.288C488.604 189.533 488.385 189.805 488.098 190.104C487.811 190.403 487.641 190.579 487.588 190.632C487.534 190.685 487.412 190.787 487.221 190.936C487.189 190.968 487.167 190.989 487.157 191H486.965C486.88 191 486.822 191 486.79 191C486.758 191 486.731 190.984 486.71 190.952C486.689 190.92 486.673 190.872 486.662 190.808C486.673 190.797 486.731 190.728 486.838 190.6C488.487 188.883 489.311 186.349 489.311 183C489.311 179.651 488.487 177.117 486.838 175.4C486.731 175.272 486.673 175.203 486.662 175.192C486.662 175.107 486.689 175.048 486.742 175.016Z" fill="black"/>
</g>
<g clip-path="url(#clip2_1_119)">
<path d="M138.065 116.976C138.065 116.567 137.911 116.213 137.602 115.916C137.293 115.619 136.846 115.471 136.262 115.471C135.85 115.471 135.495 115.537 135.198 115.671C134.854 115.865 134.683 116.131 134.683 116.469C134.671 116.52 134.671 116.587 134.683 116.669C134.694 116.751 134.786 116.874 134.957 117.038C135.129 117.201 135.375 117.329 135.696 117.422C135.902 117.473 136.154 117.519 136.451 117.56C136.749 117.601 137.001 117.647 137.207 117.698C137.413 117.749 137.596 117.816 137.756 117.898C137.951 117.98 138.14 118.082 138.323 118.205C138.506 118.328 138.689 118.538 138.872 118.835C139.055 119.132 139.153 119.449 139.164 119.787C139.164 120.422 138.947 120.944 138.512 121.354C138.077 121.763 137.373 121.973 136.4 121.984H136.262C135.667 121.984 135.118 121.799 134.614 121.431L134.477 121.538L134.322 121.676C134.253 121.738 134.185 121.794 134.116 121.845L133.927 121.999H133.79H133.721C133.687 121.999 133.635 121.968 133.567 121.907V120.693V119.802C133.567 119.587 133.578 119.459 133.601 119.418C133.624 119.378 133.681 119.352 133.773 119.342H133.927C134.065 119.342 134.156 119.362 134.202 119.403C134.248 119.444 134.276 119.506 134.288 119.587C134.299 119.669 134.339 119.808 134.408 120.002C134.477 120.197 134.585 120.412 134.734 120.647C135.135 121.17 135.69 121.431 136.4 121.431C137.51 121.431 138.065 121.031 138.065 120.233C138.065 119.936 137.962 119.695 137.756 119.511C137.527 119.265 137.052 119.081 136.331 118.958C135.61 118.835 135.135 118.717 134.906 118.604C134.494 118.43 134.168 118.195 133.927 117.898C133.687 117.601 133.567 117.283 133.567 116.945C133.567 116.546 133.664 116.208 133.859 115.932C134.053 115.655 134.299 115.45 134.597 115.317C134.894 115.184 135.181 115.092 135.455 115.041C135.73 114.99 135.982 114.964 136.211 114.964H136.4C136.858 114.964 137.258 115.041 137.602 115.194L137.859 115.317L138.014 115.21C138.128 115.118 138.254 115.031 138.391 114.949H138.529H138.597C138.632 114.949 138.683 114.979 138.752 115.041V117.068L138.649 117.161H138.168C138.1 117.099 138.065 117.038 138.065 116.976Z" fill="black"/>
<path d="M140.95 112.476C140.95 112.189 141.053 111.964 141.259 111.8C141.465 111.636 141.717 111.554 142.014 111.554C142.278 111.574 142.507 111.661 142.701 111.815C142.896 111.969 142.993 112.189 142.993 112.476C142.993 112.783 142.896 113.013 142.701 113.167C142.507 113.32 142.266 113.397 141.98 113.397C141.694 113.397 141.453 113.32 141.259 113.167C141.064 113.013 140.961 112.783 140.95 112.476ZM144.006 121.83C143.834 121.799 143.239 121.784 142.22 121.784C142.094 121.784 141.883 121.784 141.585 121.784C141.287 121.784 141.001 121.794 140.727 121.815L140.349 121.83H140.211V121.123H140.486C140.807 121.123 141.087 121.108 141.328 121.077C141.431 121.036 141.494 120.98 141.516 120.908C141.539 120.837 141.551 120.622 141.551 120.263V118.681V117.329C141.551 116.797 141.539 116.459 141.516 116.316C141.494 116.172 141.413 116.075 141.276 116.024C141.116 115.952 140.847 115.916 140.469 115.916H140.28V115.563C140.28 115.327 140.292 115.21 140.314 115.21L140.486 115.194C140.601 115.184 140.761 115.174 140.967 115.164C141.173 115.153 141.379 115.143 141.585 115.133C141.78 115.123 141.986 115.112 142.203 115.102C142.421 115.092 142.587 115.077 142.701 115.056C142.816 115.036 142.879 115.031 142.89 115.041H142.942V120.878C142.999 120.98 143.067 121.042 143.148 121.062C143.228 121.083 143.428 121.103 143.749 121.123H144.143V121.83H144.006Z" fill="black"/>
<path d="M145.242 121.123H145.483C145.929 121.123 146.198 121.052 146.29 120.908V120.786C146.29 120.693 146.29 120.576 146.29 120.432C146.29 120.289 146.29 120.13 146.29 119.956C146.29 119.782 146.295 119.582 146.307 119.357C146.318 119.132 146.318 118.917 146.307 118.712C146.307 118.394 146.307 118.057 146.307 117.698C146.307 117.34 146.301 117.038 146.29 116.792V116.439C146.255 116.244 146.175 116.116 146.049 116.055C145.923 115.993 145.666 115.947 145.277 115.916H144.968V115.563C144.968 115.327 144.979 115.21 145.002 115.21L145.174 115.194C145.288 115.184 145.448 115.174 145.654 115.164C145.86 115.153 146.072 115.143 146.29 115.133C146.484 115.123 146.69 115.112 146.908 115.102C147.125 115.092 147.291 115.077 147.406 115.056C147.52 115.036 147.583 115.031 147.595 115.041H147.646V115.655C147.646 116.044 147.652 116.239 147.663 116.239C147.675 116.239 147.703 116.213 147.749 116.162C147.795 116.111 147.864 116.034 147.955 115.932C148.047 115.829 148.156 115.737 148.281 115.655C148.407 115.573 148.573 115.476 148.779 115.363C148.985 115.251 149.203 115.169 149.432 115.118C149.661 115.066 149.953 115.041 150.308 115.041C151.612 115.082 152.339 115.66 152.488 116.776C152.5 116.848 152.505 117.56 152.505 118.912V120.233C152.505 120.622 152.517 120.852 152.54 120.924C152.563 120.995 152.625 121.047 152.728 121.077C152.969 121.108 153.249 121.123 153.57 121.123H153.845V121.83H153.707L153.295 121.815C153.032 121.804 152.746 121.799 152.437 121.799C152.128 121.799 151.91 121.794 151.784 121.784C150.605 121.784 149.964 121.799 149.861 121.83H149.724V121.123H149.998C150.697 121.123 151.046 121.042 151.046 120.878C151.057 120.857 151.063 120.151 151.063 118.758C151.052 117.376 151.04 116.643 151.029 116.561C150.96 116.275 150.846 116.06 150.685 115.916C150.525 115.773 150.388 115.686 150.273 115.655C150.159 115.624 150.01 115.614 149.827 115.624C149.312 115.624 148.859 115.799 148.47 116.147C148.161 116.423 147.967 116.705 147.887 116.992C147.806 117.278 147.761 117.703 147.749 118.266V119.25V120.171C147.749 120.478 147.755 120.683 147.766 120.786C147.778 120.888 147.795 120.955 147.818 120.985C147.841 121.016 147.892 121.047 147.972 121.077C148.213 121.108 148.493 121.123 148.814 121.123H149.088V121.83H148.951L148.556 121.815C148.281 121.804 147.99 121.799 147.68 121.799C147.371 121.799 147.154 121.794 147.028 121.784C145.849 121.784 145.208 121.799 145.105 121.83H144.968V121.123H145.242Z" fill="black"/>
<path d="M157.548 118.758C157.548 117.713 157.771 116.613 158.218 115.455C158.664 114.298 159.271 113.3 160.038 112.46C160.805 111.621 161.6 111.139 162.424 111.016C162.436 111.016 162.482 111.016 162.562 111.016C162.642 111.016 162.711 111.011 162.768 111.001C163.386 111.042 163.867 111.293 164.21 111.754C164.657 112.368 164.88 113.192 164.88 114.227C164.88 115.404 164.622 116.602 164.107 117.821C163.592 119.04 162.934 120.038 162.133 120.816C161.331 121.595 160.564 121.984 159.832 121.984H159.712C159.3 121.984 158.945 121.881 158.647 121.676C158.349 121.472 158.126 121.2 157.977 120.862C157.829 120.524 157.72 120.181 157.651 119.833C157.582 119.485 157.548 119.127 157.548 118.758ZM163.523 113.136C163.523 112.092 163.22 111.569 162.613 111.569C162.201 111.569 161.801 111.8 161.411 112.261C161.022 112.721 160.702 113.244 160.45 113.827C160.198 114.411 160.003 114.923 159.866 115.363C159.729 115.804 159.654 116.06 159.643 116.131C160.204 116.142 160.759 116.147 161.308 116.147L162.974 116.131C162.985 116.121 163.031 115.952 163.111 115.624C163.191 115.297 163.283 114.887 163.386 114.396C163.489 113.904 163.535 113.484 163.523 113.136ZM158.887 119.802C158.887 120.888 159.191 121.431 159.797 121.431C159.969 121.431 160.152 121.379 160.347 121.277C160.541 121.175 160.776 120.98 161.051 120.693C161.326 120.407 161.6 119.961 161.875 119.357C162.15 118.753 162.424 118.005 162.699 117.114L162.785 116.853H159.437C159.437 116.884 159.385 117.079 159.282 117.437C159.179 117.795 159.088 118.195 159.008 118.635C158.927 119.075 158.887 119.465 158.887 119.802Z" fill="black"/>
</g>
<defs>
<clipPath id="clip0_1_119">
<rect width="9" height="7" fill="white" transform="translate(345 271)"/>
</clipPath>
<clipPath id="clip1_1_119">
<rect width="93" height="16" fill="white" transform="translate(399 175)"/>
</clipPath>
<clipPath id="clip2_1_119">
<rect width="32" height="11" fill="white" transform="translate(133 111)"/>
</clipPath>
</defs>
</svg>
